HIERARCHY
ROOT RootJoint
{
    OFFSET   0.000000   0.000000   0.000000
    CHANNELS 6 Xposition Yposition Zposition Xrotation Yrotation Zrotation
    JOINT pelvis_lowerback
    {
        OFFSET   0.000000   0.093605   0.000000
        CHANNELS 3 Xrotation Yrotation Zrotation
        JOINT lowerback_torso
        {
            OFFSET   0.000000   0.100000   0.000000
            CHANNELS 3 Xrotation Yrotation Zrotation
            JOINT torso_head
            {
                OFFSET   0.000000   0.282350   0.000000
                CHANNELS 3 Xrotation Yrotation Zrotation
                End Site
                {
                    OFFSET   0.000000   0.192650   0.000000
                }
            }
            JOINT rTorso_Clavicle
            {
                OFFSET  -0.001000   0.157500   0.000000
                CHANNELS 3 Xrotation Yrotation Zrotation
                JOINT rShoulder
                {
                    OFFSET  -0.117647   0.000000   0.000000
                    CHANNELS 3 Xrotation Yrotation Zrotation
                    JOINT rElbow
                    {
                        OFFSET  -0.245000   0.000000   0.000000
                        CHANNELS 3 Xrotation Yrotation Zrotation
                        JOINT rWrist
                        {
                            OFFSET  -0.240000   0.000000   0.000000
                            CHANNELS 3 Xrotation Yrotation Zrotation
                            End Site
                            {
                                OFFSET  -0.116353  -0.002500   0.000000
                            }
                        }
                    }
                }
            }
            JOINT lTorso_Clavicle
            {
                OFFSET   0.001000   0.157500   0.000000
                CHANNELS 3 Xrotation Yrotation Zrotation
                JOINT lShoulder
                {
                    OFFSET   0.117647   0.000000   0.000000
                    CHANNELS 3 Xrotation Yrotation Zrotation
                    JOINT lElbow
                    {
                        OFFSET   0.245000   0.000000   0.000000
                        CHANNELS 3 Xrotation Yrotation Zrotation
                        JOINT lWrist
                        {
                            OFFSET   0.240000   0.000000   0.000000
                            CHANNELS 3 Xrotation Yrotation Zrotation
                            End Site
                            {
                                OFFSET   0.116353  -0.002500   0.000000
                            }
                        }
                    }
                }
            }
        }
    }
    JOINT rHip
    {
        OFFSET  -0.100000  -0.051395   0.000000
        CHANNELS 3 Xrotation Yrotation Zrotation
        JOINT rKnee
        {
            OFFSET   0.000000  -0.410000   0.000000
            CHANNELS 3 Xrotation Yrotation Zrotation
            JOINT rAnkle
            {
                OFFSET   0.000000  -0.390000   0.000000
                CHANNELS 3 Xrotation Yrotation Zrotation
                JOINT rToeJoint
                {
                    OFFSET   0.000000  -0.050000   0.130000
                    CHANNELS 3 Xrotation Yrotation Zrotation
                    End Site
                    {
                        OFFSET  -0.010000   0.002000   0.060000
                    }
                }
            }
        }
    }
    JOINT lHip
    {
        OFFSET   0.100000  -0.051395   0.000000
        CHANNELS 3 Xrotation Yrotation Zrotation
        JOINT lKnee
        {
            OFFSET   0.000000  -0.410000   0.000000
            CHANNELS 3 Xrotation Yrotation Zrotation
            JOINT lAnkle
            {
                OFFSET   0.000000  -0.390000   0.000000
                CHANNELS 3 Xrotation Yrotation Zrotation
                JOINT lToeJoint
                {
                    OFFSET   0.000000  -0.050000   0.130000
                    CHANNELS 3 Xrotation Yrotation Zrotation
                    End Site
                    {
                        OFFSET   0.010000   0.002000   0.060000
                    }
                }
            }
        }
    }
}
MOTION
Frames: 5
Frame Time:   0.008333
 -2.364081   0.929818   5.416017  -0.640532 -11.505933   2.862165  10.909291   5.936742  -0.382846   5.166852   0.100070   1.747031  -3.116027  -0.366222   1.758705   1.096328   0.565485   6.862152  -2.177347   8.429441  43.735016   0.011238  38.197796  -0.035942  -0.204277   2.872958  -4.028780   8.136221   4.203590  -6.205306  19.031554  -5.513177 -49.938064  -0.009465 -19.549995   0.013475   3.015650  -3.423786  -1.304784   8.770956  -3.435992  -1.662130  16.498443  -0.001026   0.011254   0.811446  -4.027556   0.889779 -38.995970  -0.006892   0.018010 -31.121495   5.877227   6.055495  38.427948   0.007626   0.058762 -11.728975  14.307249   4.718130  -5.067446   0.003939   0.000824
 -2.364292   0.928058   5.430605  -0.729943 -12.145681   2.747407  10.882742   6.430001  -0.301415   5.341360   0.400944   1.720868  -3.190469  -0.549078   1.821813   0.925001   0.906536   6.675971  -2.672768   8.932486  43.538386   0.008320  39.662268  -0.034326  -0.211949   2.833286  -3.931211   8.405057   4.732028  -6.189553  19.814415  -4.691939 -49.963219  -0.008116 -18.888905   0.014082   2.990666  -3.357226  -1.441154   9.880273  -3.402423  -1.900021  16.190335  -0.001205   0.010705   1.230274  -3.649625   1.313113 -40.637721  -0.005902   0.019549 -31.445438   6.011242   6.259202  35.553261   0.003169   0.057358 -11.753602  14.348686   4.649216  -5.131402   0.002603   0.000641
 -2.364518   0.926048   5.445354  -0.808585 -12.719266   2.597154  10.823586   6.897724  -0.194512   5.494306   0.698523   1.710429  -3.258883  -0.725263   1.885901   0.739478   1.226191   6.450497  -3.156762   9.414714  43.326359   0.004941  41.051310  -0.032381  -0.212215   2.908963  -3.886658   8.694309   5.265177  -6.143662  20.580965  -3.890488 -49.980654  -0.006912 -18.255764   0.014565   2.965199  -3.249491  -1.549725  10.962915  -3.353164  -2.103899  15.902823  -0.001382   0.009965   1.625173  -3.282204   1.554234 -42.162569  -0.006722   0.018148 -31.751677   6.124972   6.468305  32.746916  -0.001334   0.054559 -11.780744  14.384330   4.584437  -5.183828   0.001631   0.000482
 -2.364784   0.923712   5.460213  -0.871273 -13.265982   2.442798  10.745586   7.362134  -0.101030   5.622361   1.002942   1.700246  -3.325225  -0.890054   1.947161   0.549721   1.532110   6.208759  -3.621647   9.873353  43.111909   0.001797  42.355791  -0.030482  -0.207751   3.036077  -3.894849   8.989399   5.788196  -6.068482  21.320420  -3.118640 -49.988588  -0.005906 -17.653414   0.014819   2.941328  -3.090340  -1.627734  12.020005  -3.349543  -2.310094  15.672948  -0.001440   0.009126   2.055934  -2.952934   1.926730 -43.920067  -0.006867   0.019514 -32.065596   6.231504   6.671088  30.106038  -0.005227   0.051157 -11.807413  14.417141   4.523826  -5.235320   0.000873   0.000358
 -2.365041   0.921133   5.475199  -0.925895 -13.768031   2.279252  10.657632   7.811936  -0.003766   5.731583   1.304357   1.689661  -3.389541  -1.043842   2.003498   0.361448   1.823114   5.963558  -4.063848  10.306074  42.898322  -0.000754  43.576305  -0.028685  -0.200508   3.181316  -3.944247   9.278809   6.291037  -5.986588  22.023852  -2.384716 -49.995973  -0.005167 -17.083841   0.014813   2.919088  -2.895412  -1.680490  13.047890  -3.351737  -2.504623  15.464203  -0.001469   0.008282   2.429285  -2.664212   2.128048 -45.360490  -0.008456   0.018264 -32.380334   6.328082   6.856189  27.636392  -0.008707   0.047106 -11.832738  14.447462   4.467240  -5.285272   0.000287   0.000255
